<svg width="16" height="16" viewBox="0 0 16 16" fill="none" xmlns="http://www.w3.org/2000/svg">
<path d="M10.5 7.00002C10.5 7.13263 10.4473 7.2598 10.3536 7.35357C10.2598 7.44734 10.1326 7.50002 10 7.50002H6C5.86739 7.50002 5.74021 7.44734 5.64645 7.35357C5.55268 7.2598 5.5 7.13263 5.5 7.00002C5.5 6.86741 5.55268 6.74023 5.64645 6.64647C5.74021 6.5527 5.86739 6.50002 6 6.50002H10C10.1326 6.50002 10.2598 6.5527 10.3536 6.64647C10.4473 6.74023 10.5 6.86741 10.5 7.00002ZM10 8.50002H6C5.86739 8.50002 5.74021 8.5527 5.64645 8.64647C5.55268 8.74023 5.5 8.86741 5.5 9.00002C5.5 9.13263 5.55268 9.25981 5.64645 9.35357C5.74021 9.44734 5.86739 9.50002 6 9.50002H10C10.1326 9.50002 10.2598 9.44734 10.3536 9.35357C10.4473 9.25981 10.5 9.13263 10.5 9.00002C10.5 8.86741 10.4473 8.74023 10.3536 8.64647C10.2598 8.5527 10.1326 8.50002 10 8.50002ZM14.5 8.00002C14.5002 9.12223 14.2099 10.2254 13.6574 11.2021C13.1048 12.1788 12.3087 12.9959 11.3467 13.5737C10.3847 14.1515 9.28942 14.4703 8.16759 14.4993C7.04575 14.5282 5.93554 14.2662 4.945 13.7388L2.81687 14.4481C2.64068 14.5069 2.4516 14.5154 2.27083 14.4728C2.09006 14.4301 1.92474 14.3379 1.79341 14.2066C1.66207 14.0753 1.56991 13.91 1.52725 13.7292C1.48459 13.5484 1.49312 13.3593 1.55187 13.1831L2.26125 11.055C1.79759 10.1833 1.53862 9.21739 1.504 8.23063C1.46937 7.24387 1.66 6.26219 2.06142 5.3601C2.46283 4.45802 3.06448 3.65924 3.8207 3.02439C4.57691 2.38954 5.46782 1.93532 6.42579 1.69619C7.38376 1.45707 8.38362 1.43932 9.34948 1.64431C10.3153 1.8493 11.2218 2.27163 12.0001 2.87925C12.7783 3.48687 13.4079 4.2638 13.8411 5.15108C14.2743 6.03835 14.4996 7.01265 14.5 8.00002ZM13.5 8.00002C13.4998 7.15635 13.3054 6.32404 12.9321 5.56748C12.5587 4.81093 12.0163 4.15042 11.3468 3.63704C10.6773 3.12366 9.89863 2.77119 9.07111 2.60689C8.24359 2.44258 7.38936 2.47086 6.57452 2.68952C5.75968 2.90818 5.00606 3.31137 4.37197 3.86789C3.73788 4.42441 3.24032 5.11935 2.91779 5.89893C2.59525 6.67852 2.45639 7.52186 2.51193 8.3637C2.56748 9.20554 2.81595 10.0233 3.23812 10.7538C3.27356 10.8151 3.29556 10.8832 3.30267 10.9537C3.30978 11.0242 3.30184 11.0954 3.27937 11.1625L2.5 13.5L4.8375 12.7206C4.88841 12.7033 4.94183 12.6944 4.99562 12.6944C5.08344 12.6945 5.16966 12.7178 5.24562 12.7619C6.08175 13.2457 7.03054 13.5007 7.99653 13.5013C8.96251 13.5019 9.91162 13.2481 10.7484 12.7654C11.5851 12.2827 12.2799 11.5881 12.763 10.7516C13.246 9.91501 13.5002 8.96601 13.5 8.00002Z" fill="#D6CD8D"/>
</svg>
