<svg width="58" height="49" viewBox="0 0 58 49" fill="none" xmlns="http://www.w3.org/2000/svg">
<path d="M57.1642 4.35986C57.1507 2.50078 55.6431 1 53.784 1H42.8729C38.5869 1 34.7606 3.69735 33.3207 7.73324L24.3498 32.868C22.3893 36.2278 19.0632 41.8051 16.7918 43.9954C16.1969 44.5903 15.656 45.0703 15.1693 45.4353C14.6826 45.8004 14.2905 45.9829 13.993 45.9829C13.6415 45.9829 13.3914 45.7801 13.2426 45.3745C13.0939 44.9689 13.1007 44.3469 13.2629 43.5087L18.0086 18.0359C18.0357 17.9818 17.9951 17.9007 17.8869 17.7925C17.7788 17.6844 17.6841 17.6573 17.603 17.7114L12.6139 20.1451C12.5058 20.1722 12.4787 20.2668 12.5328 20.4291C12.5869 20.5913 12.668 20.6454 12.7762 20.5913C14.0471 19.9694 14.8921 19.7801 15.3113 20.0234C15.7304 20.2668 15.8589 20.8211 15.6966 21.6865L13.824 31.5768C13.824 31.5768 13.8173 31.57 13.8105 31.57C13.175 31.1509 12.4922 30.9413 11.7621 30.9413C10.5723 30.9413 9.39603 31.232 8.23326 31.8134C7.07049 32.3948 5.98208 33.1992 4.96804 34.2268C3.954 35.2543 3.09544 36.4306 2.39237 37.7557C1.68931 39.0807 1.20256 40.5003 0.932153 42.0146C0.715824 43.3937 0.736105 44.4957 0.992996 45.3204C1.24989 46.1452 1.6555 46.7401 2.20985 47.1051C2.76419 47.4702 3.36586 47.6527 4.01484 47.6527C5.20465 47.6527 6.34714 47.1998 7.44231 46.2939C8.53747 45.388 9.57855 44.1441 10.5656 42.5622C11.201 41.5482 11.8027 40.426 12.3705 39.2294L11.5593 43.5154C11.2889 45.0027 11.2281 46.037 11.3768 46.6184C11.5255 47.1998 11.9244 47.4905 12.5734 47.4905C13.2764 47.4905 13.9795 47.2133 14.6826 46.6589C15.3856 46.1046 16.1969 45.3272 17.1163 44.3266C19.0159 42.258 21.5443 38.6548 23.4777 35.322L19.0497 47.7338H28.9603C30.4408 47.7338 31.7455 46.7739 32.1849 45.361L33.1449 42.2918C34.0237 39.466 35.6935 31.1576 39.601 31.401L45.4689 31.4821L45.0768 47.7338H54.0071C55.8797 47.7338 57.4008 46.206 57.3873 44.3334L57.1642 4.36662V4.35986ZM10.2411 42.0484C9.52447 43.1571 8.72676 44.0765 7.84792 44.8066C6.96909 45.5367 6.06997 45.9018 5.15057 45.9018C4.23117 45.9018 3.54162 45.4556 3.08192 44.5633C2.62222 43.6709 2.5411 42.3188 2.83855 40.5071C3.29825 37.83 4.23793 35.7884 5.65759 34.3823C7.07725 32.9761 8.69296 32.2595 10.5047 32.2325C11.4782 32.2055 12.1948 32.4894 12.6545 33.0843C13.1142 33.6792 13.2359 34.531 13.0195 35.6397C12.8573 36.478 12.5328 37.4785 12.0461 38.6413C11.5593 39.804 10.9577 40.9397 10.2411 42.0484ZM46.1382 20.713C46.0029 22.8628 45.239 24.6542 42.5484 24.6542L38.5802 24.6745L41.6696 14.7301C42.109 13.3172 43.4205 12.3505 44.8943 12.3505H46.4965L46.1314 20.7062L46.1382 20.713Z" fill="url(#paint0_linear_516_1139)" stroke="url(#paint1_linear_516_1139)" stroke-miterlimit="10"/>
<defs>
<linearGradient id="paint0_linear_516_1139" x1="2.98728" y1="49.0994" x2="63.7487" y2="15.3791" gradientUnits="userSpaceOnUse">
<stop stop-color="#8DC63F"/>
<stop offset="0.08" stop-color="#9FB439"/>
<stop offset="0.23" stop-color="#BD9731"/>
<stop offset="0.39" stop-color="#D4812A"/>
<stop offset="0.57" stop-color="#E57125"/>
<stop offset="0.76" stop-color="#EE6722"/>
<stop offset="1" stop-color="#F26522"/>
</linearGradient>
<linearGradient id="paint1_linear_516_1139" x1="2.68983" y1="49.2617" x2="64.0461" y2="15.2169" gradientUnits="userSpaceOnUse">
<stop stop-color="#8DC63F"/>
<stop offset="0.08" stop-color="#9FB439"/>
<stop offset="0.23" stop-color="#BD9731"/>
<stop offset="0.39" stop-color="#D4812A"/>
<stop offset="0.57" stop-color="#E57125"/>
<stop offset="0.76" stop-color="#EE6722"/>
<stop offset="1" stop-color="#F26522"/>
</linearGradient>
</defs>
</svg>
