<svg width="16" height="16" viewBox="0 0 16 16" fill="none" xmlns="http://www.w3.org/2000/svg">
<path d="M14.805 1.63688C14.7276 1.56999 14.6333 1.5255 14.5324 1.50821C14.4315 1.49092 14.3279 1.50148 14.2325 1.53876L1.56629 6.49563C1.38678 6.56543 1.2348 6.69166 1.13324 6.85531C1.03168 7.01896 0.986025 7.21118 1.00316 7.40302C1.02029 7.59486 1.09928 7.77594 1.22823 7.919C1.35718 8.06207 1.52912 8.15937 1.71816 8.19626L5.00004 8.84063V12.5C4.99939 12.6993 5.05862 12.8943 5.17006 13.0595C5.2815 13.2248 5.44 13.3528 5.62504 13.4269C5.80978 13.5023 6.01295 13.5204 6.20812 13.4789C6.4033 13.4373 6.58145 13.3379 6.71941 13.1938L8.30191 11.5525L10.8125 13.75C10.9937 13.9107 11.2273 13.9996 11.4694 14C11.5755 13.9999 11.681 13.9833 11.7819 13.9506C11.9469 13.8983 12.0953 13.8036 12.2123 13.6761C12.3293 13.5486 12.4108 13.3926 12.4488 13.2238L14.9857 2.18751C15.0084 2.08798 15.0035 1.98414 14.9717 1.88715C14.9399 1.79015 14.8823 1.70363 14.805 1.63688ZM10.9838 3.88688L5.38441 7.89688L2.28441 7.28876L10.9838 3.88688ZM6.00004 12.5V9.53251L7.54941 10.8913L6.00004 12.5ZM11.4707 13L6.30316 8.46876L13.7407 3.13813L11.4707 13Z" fill="#D6CD8D"/>
</svg>
