<svg width="16" height="16" viewBox="0 0 16 16" fill="none" xmlns="http://www.w3.org/2000/svg">
<path d="M6.50002 8.75001C6.50002 8.89834 6.45603 9.04335 6.37362 9.16668C6.29121 9.29002 6.17408 9.38615 6.03703 9.44292C5.89999 9.49968 5.74919 9.51453 5.6037 9.4856C5.45822 9.45666 5.32458 9.38523 5.21969 9.28034C5.1148 9.17545 5.04337 9.04181 5.01443 8.89632C4.98549 8.75084 5.00034 8.60004 5.05711 8.46299C5.11388 8.32595 5.21001 8.20882 5.33334 8.1264C5.45668 8.04399 5.60168 8.00001 5.75002 8.00001C5.94893 8.00001 6.1397 8.07902 6.28035 8.21968C6.421 8.36033 6.50002 8.55109 6.50002 8.75001ZM10.25 8.00001C10.1017 8.00001 9.95668 8.04399 9.83334 8.1264C9.71001 8.20882 9.61388 8.32595 9.55711 8.46299C9.50035 8.60004 9.48549 8.75084 9.51443 8.89632C9.54337 9.04181 9.6148 9.17545 9.71969 9.28034C9.82458 9.38523 9.95822 9.45666 10.1037 9.4856C10.2492 9.51453 10.4 9.49968 10.537 9.44292C10.6741 9.38615 10.7912 9.29002 10.8736 9.16668C10.956 9.04335 11 8.89834 11 8.75001C11 8.55109 10.921 8.36033 10.7803 8.21968C10.6397 8.07902 10.4489 8.00001 10.25 8.00001ZM14.9031 12.0563L10.7156 13.9131C10.5897 13.9691 10.4537 13.9987 10.3159 14.0002C10.1781 14.0017 10.0415 13.975 9.91441 13.9217C9.78733 13.8684 9.67248 13.7897 9.57693 13.6905C9.48138 13.5912 9.40714 13.4734 9.35877 13.3444L8.8519 11.9694C8.5719 11.9881 8.28794 11.9977 8.00002 11.9981C7.7121 11.9985 7.42815 11.989 7.14815 11.9694L6.64127 13.3444C6.59283 13.4734 6.51855 13.5911 6.42298 13.6903C6.32741 13.7895 6.21257 13.8682 6.08552 13.9214C5.95846 13.9747 5.82186 14.0014 5.6841 14C5.54634 13.9986 5.41032 13.969 5.2844 13.9131L1.0969 12.0563C0.880762 11.9618 0.705201 11.7936 0.601498 11.5817C0.497794 11.3698 0.472685 11.128 0.530645 10.8994L2.37502 3.62501C2.4237 3.43582 2.52648 3.26494 2.67079 3.13329C2.8151 3.00163 2.99468 2.91491 3.18752 2.88376L5.44127 2.51313C5.68972 2.47317 5.94416 2.52705 6.15509 2.66428C6.36603 2.80151 6.51838 3.0123 6.58252 3.25563L6.78627 4.05813C7.18335 4.01938 7.58794 4.00001 8.00002 4.00001C8.4121 4.00001 8.81627 4.01938 9.21252 4.05813L9.41627 3.25563C9.48028 3.01222 9.63261 2.80135 9.84358 2.6641C10.0545 2.52684 10.309 2.47303 10.5575 2.51313L12.8125 2.88376C13.0054 2.91491 13.1849 3.00163 13.3292 3.13329C13.4736 3.26494 13.5763 3.43582 13.625 3.62501L15.4706 10.8988C15.5287 11.1277 15.5035 11.3697 15.3995 11.5818C15.2956 11.7938 15.1196 11.962 14.9031 12.0563ZM14.5 11.1425L12.6544 3.87501C12.6544 3.87501 12.6544 3.87501 12.6494 3.87501L10.3956 3.50001C10.394 3.49907 10.3922 3.49858 10.3903 3.49858C10.3885 3.49858 10.3866 3.49907 10.385 3.50001L10.2081 4.19626C10.5206 4.25501 10.8331 4.32501 11.135 4.41001C11.254 4.44034 11.3577 4.51342 11.4263 4.61531C11.4949 4.7172 11.5236 4.84077 11.5069 4.96245C11.4902 5.08413 11.4293 5.19541 11.3358 5.27508C11.2423 5.35474 11.1228 5.39721 11 5.39438C10.9544 5.39425 10.909 5.38795 10.865 5.37563C9.93124 5.12225 8.96756 4.9959 8.00002 5.00001C7.03251 4.9957 6.06883 5.12183 5.13502 5.37501C5.07123 5.39473 5.00414 5.40147 4.9377 5.39484C4.87126 5.38821 4.80682 5.36834 4.74818 5.33641C4.68955 5.30447 4.6379 5.26111 4.59629 5.20889C4.55468 5.15667 4.52396 5.09665 4.50592 5.03236C4.48789 4.96807 4.48291 4.90082 4.49129 4.83458C4.49967 4.76834 4.52123 4.70445 4.5547 4.64667C4.58817 4.5889 4.63287 4.53841 4.68617 4.49819C4.73947 4.45798 4.80028 4.42884 4.86502 4.41251C5.16627 4.32751 5.47627 4.25751 5.79127 4.19876L5.6144 3.50001C5.6144 3.50001 5.6144 3.50001 5.60689 3.50001L3.35065 3.87063C3.3488 3.87013 3.34686 3.87013 3.34502 3.87063L1.50002 11.1456L5.68752 13C5.68963 13.0012 5.69199 13.0018 5.6944 13.0018C5.6968 13.0018 5.69916 13.0012 5.70127 13L6.12502 11.8575C5.70045 11.7926 5.28013 11.7024 4.86627 11.5875C4.743 11.5481 4.63981 11.4625 4.57838 11.3486C4.51695 11.2347 4.50207 11.1014 4.53687 10.9768C4.57167 10.8521 4.65344 10.7458 4.76499 10.6802C4.87654 10.6146 5.00918 10.5948 5.13502 10.625C6.06877 10.8785 7.03249 11.0046 8.00002 11C8.96755 11.0046 9.93127 10.8785 10.865 10.625C10.9927 10.5892 11.1294 10.6056 11.2451 10.6706C11.3607 10.7356 11.4458 10.8439 11.4816 10.9716C11.5174 11.0993 11.501 11.236 11.436 11.3516C11.371 11.4673 11.2627 11.5523 11.135 11.5881C10.7207 11.7029 10.3 11.7928 9.87502 11.8575L10.2969 13C10.2989 13.0011 10.3012 13.0017 10.3035 13.0017C10.3057 13.0017 10.308 13.0011 10.31 13L14.5 11.1425Z" fill="#D6CD8D"/>
</svg>
