<svg width="16" height="12" viewBox="0 0 16 12" fill="none" xmlns="http://www.w3.org/2000/svg">
<path d="M6.50002 6.75001C6.50002 6.89834 6.45603 7.04335 6.37362 7.16668C6.29121 7.29002 6.17408 7.38615 6.03703 7.44292C5.89999 7.49968 5.74919 7.51453 5.6037 7.4856C5.45822 7.45666 5.32458 7.38523 5.21969 7.28034C5.1148 7.17545 5.04337 7.04181 5.01443 6.89632C4.98549 6.75084 5.00034 6.60004 5.05711 6.46299C5.11388 6.32595 5.21001 6.20882 5.33334 6.1264C5.45668 6.04399 5.60168 6.00001 5.75002 6.00001C5.94893 6.00001 6.1397 6.07902 6.28035 6.21968C6.421 6.36033 6.50002 6.55109 6.50002 6.75001ZM10.25 6.00001C10.1017 6.00001 9.95668 6.04399 9.83334 6.1264C9.71001 6.20882 9.61388 6.32595 9.55711 6.46299C9.50035 6.60004 9.48549 6.75084 9.51443 6.89632C9.54337 7.04181 9.6148 7.17545 9.71969 7.28034C9.82458 7.38523 9.95822 7.45666 10.1037 7.4856C10.2492 7.51453 10.4 7.49968 10.537 7.44292C10.6741 7.38615 10.7912 7.29002 10.8736 7.16668C10.956 7.04335 11 6.89834 11 6.75001C11 6.55109 10.921 6.36033 10.7803 6.21968C10.6397 6.07902 10.4489 6.00001 10.25 6.00001ZM14.9031 10.0563L10.7156 11.9131C10.5897 11.9691 10.4537 11.9987 10.3159 12.0002C10.1781 12.0017 10.0415 11.975 9.91441 11.9217C9.78733 11.8684 9.67248 11.7897 9.57693 11.6905C9.48138 11.5912 9.40714 11.4734 9.35877 11.3444L8.8519 9.96938C8.5719 9.98813 8.28794 9.99771 8.00002 9.99813C7.7121 9.99855 7.42815 9.98897 7.14815 9.96938L6.64127 11.3444C6.59283 11.4734 6.51855 11.5911 6.42298 11.6903C6.32741 11.7895 6.21257 11.8682 6.08552 11.9214C5.95846 11.9747 5.82186 12.0014 5.6841 12C5.54634 11.9986 5.41032 11.969 5.2844 11.9131L1.0969 10.0563C0.880762 9.96176 0.705201 9.79359 0.601498 9.58172C0.497794 9.36985 0.472685 9.12804 0.530645 8.89938L2.37502 1.62501C2.4237 1.43582 2.52648 1.26494 2.67079 1.13329C2.8151 1.00163 2.99468 0.914913 3.18752 0.883757L5.44127 0.513132C5.68972 0.473171 5.94416 0.527046 6.15509 0.66428C6.36603 0.801514 6.51838 1.0123 6.58252 1.25563L6.78627 2.05813C7.18335 2.01938 7.58794 2.00001 8.00002 2.00001C8.4121 2.00001 8.81627 2.01938 9.21252 2.05813L9.41627 1.25563C9.48028 1.01222 9.63261 0.801353 9.84358 0.664097C10.0545 0.526841 10.309 0.473025 10.5575 0.513132L12.8125 0.883757C13.0054 0.914913 13.1849 1.00163 13.3292 1.13329C13.4736 1.26494 13.5763 1.43582 13.625 1.62501L15.4706 8.89876C15.5287 9.12765 15.5035 9.36973 15.3995 9.58175C15.2956 9.79378 15.1196 9.96196 14.9031 10.0563ZM14.5 9.14251L12.6544 1.87501C12.6544 1.87501 12.6544 1.87501 12.6494 1.87501L10.3956 1.50001C10.394 1.49907 10.3922 1.49858 10.3903 1.49858C10.3885 1.49858 10.3866 1.49907 10.385 1.50001L10.2081 2.19626C10.5206 2.25501 10.8331 2.32501 11.135 2.41001C11.254 2.44034 11.3577 2.51342 11.4263 2.61531C11.4949 2.7172 11.5236 2.84077 11.5069 2.96245C11.4902 3.08413 11.4293 3.19541 11.3358 3.27508C11.2423 3.35474 11.1228 3.39721 11 3.39438C10.9544 3.39425 10.909 3.38795 10.865 3.37563C9.93124 3.12225 8.96756 2.9959 8.00002 3.00001C7.03251 2.9957 6.06883 3.12183 5.13502 3.37501C5.07123 3.39473 5.00414 3.40147 4.9377 3.39484C4.87126 3.38821 4.80682 3.36834 4.74818 3.33641C4.68955 3.30447 4.6379 3.26111 4.59629 3.20889C4.55468 3.15667 4.52396 3.09665 4.50592 3.03236C4.48789 2.96807 4.48291 2.90082 4.49129 2.83458C4.49967 2.76834 4.52123 2.70445 4.5547 2.64667C4.58817 2.5889 4.63287 2.53841 4.68617 2.49819C4.73947 2.45798 4.80028 2.42884 4.86502 2.41251C5.16627 2.32751 5.47627 2.25751 5.79127 2.19876L5.6144 1.50001C5.6144 1.50001 5.6144 1.50001 5.60689 1.50001L3.35065 1.87063C3.3488 1.87013 3.34686 1.87013 3.34502 1.87063L1.50002 9.14563L5.68752 11C5.68963 11.0012 5.69199 11.0018 5.6944 11.0018C5.6968 11.0018 5.69916 11.0012 5.70127 11L6.12502 9.85751C5.70045 9.79256 5.28013 9.7024 4.86627 9.58751C4.743 9.54812 4.63981 9.46247 4.57838 9.34858C4.51695 9.23468 4.50207 9.1014 4.53687 8.97676C4.57167 8.85212 4.65344 8.74583 4.76499 8.68023C4.87654 8.61463 5.00918 8.59484 5.13502 8.62501C6.06877 8.87848 7.03249 9.00462 8.00002 9.00001C8.96755 9.00462 9.93127 8.87848 10.865 8.62501C10.9927 8.5892 11.1294 8.6056 11.2451 8.67059C11.3607 8.73559 11.4458 8.84385 11.4816 8.97157C11.5174 9.09929 11.501 9.236 11.436 9.35163C11.371 9.46725 11.2627 9.55233 11.135 9.58813C10.7207 9.70286 10.3 9.79281 9.87502 9.85751L10.2969 11C10.2989 11.0011 10.3012 11.0017 10.3035 11.0017C10.3057 11.0017 10.308 11.0011 10.31 11L14.5 9.14251Z" fill="#D6CD8D"/>
</svg>
