<svg width="157" height="70" viewBox="0 0 157 70" fill="none" xmlns="http://www.w3.org/2000/svg">
<g clip-path="url(#clip0_515_3979)">
<path d="M87.21 41.3834C87.46 40.1334 87.6 39.5134 88 39.3134C88.61 39.0234 89.11 39.7634 89.85 39.5234C90.77 39.2134 91.01 37.7234 91.11 37.7434C91.28 37.7934 91.43 39.2134 90.67 39.8334C89.92 40.4534 88.92 39.7534 88.44 40.2734C87.72 41.0434 89.4 43.1434 88.72 43.8034C88.38 44.1434 87.53 44.0034 87.15 43.5834C86.84 43.2334 86.96 42.6034 87.21 41.3834Z" fill="black"/>
<path d="M114.2 33.2433C114.84 34.7233 113.98 35.4833 112.92 36.1933C110.64 37.7133 108.18 37.9233 105.65 37.1133C103.74 36.5133 102.85 34.9133 102.53 33.0533C101.89 29.3533 102.23 25.6033 102.14 21.8733C102.03 17.6633 102.06 13.4533 102.05 9.24334C102.05 8.34334 101.85 7.92334 100.77 7.96334C97.9 8.04334 97.85 7.97334 97.91 5.15334C97.94 3.81334 97.25 2.02334 98.17 1.26334C98.96 0.613343 100.69 1.07334 102 1.06334C104.047 1.04334 105.083 2.06001 105.11 4.11334C105.19 11.3233 105.28 18.5333 105.36 25.7333C105.36 25.9933 105.36 26.2633 105.36 26.5233C105.26 31.4533 108.82 31.5433 111.79 30.5233C112.66 30.2233 112.97 29.7433 112.76 28.7333C112.03 25.2233 112.17 21.7133 113.18 18.2533C114.72 12.9833 119.23 10.2833 124.81 11.1933C128.89 11.8533 131.52 14.1033 132.69 18.0433C133.94 22.2933 134.06 26.5533 132.67 30.8033C131.5 34.3933 129 36.5933 125.31 37.1933C121.43 37.8233 117.83 37.1933 115.08 34.0033C114.86 33.7433 114.76 33.3433 114.2 33.2333V33.2433ZM120.72 31.8433C122.09 32.1633 124.19 32.1433 126.25 31.5433C129.34 30.6533 130.94 28.2233 130.9 24.6433C130.87 21.7633 129.05 19.5533 126.05 18.7633C124.02 18.2333 121.98 18.2733 119.95 18.7933C116.8 19.6033 115.08 21.8033 115.1 24.9533C115.12 28.4833 116.83 30.8233 120.72 31.8433Z" fill="#F29937"/>
<path d="M20.37 12.3634C20.7 13.0434 20.13 13.4134 19.83 13.8734C16.08 19.5834 12.33 25.3034 8.59001 31.0134C8.48001 31.1834 8.40001 31.3734 8.21001 31.7334C11.74 31.7134 15.13 31.7334 18.51 31.6434C19.49 31.6234 19.96 31.7334 19.87 32.9034C19.74 34.5234 20.45 36.6434 19.66 37.6434C18.83 38.6934 16.61 37.9634 15 37.9934C10.11 38.1034 5.21001 38.0834 0.0100098 38.1134C4.14001 32.0134 8.17001 26.0534 12.37 19.8534C9.34001 19.8734 6.52001 19.7834 3.71001 19.9434C2.19001 20.0234 1.55001 19.7134 1.71001 18.0734C1.84001 16.6634 1.78001 15.2334 1.70001 13.8134C1.64001 12.8534 1.89001 12.6134 2.90001 12.6134C8.53001 12.6134 14.16 12.5134 19.79 12.4434C19.99 12.4434 20.19 12.3834 20.39 12.3534L20.37 12.3634Z" fill="#F29937"/>
<path d="M63.72 12.1233C59.42 18.6733 55.3 24.9333 51.07 31.3633C54.67 31.3433 58.08 31.4233 61.48 31.2733C62.74 31.2133 62.87 31.6933 62.84 32.6733C62.81 33.8333 62.8 34.9933 62.89 36.1433C62.98 37.2433 62.68 37.6333 61.47 37.6333C55.38 37.6333 49.29 37.7233 42.92 37.7933C47.08 31.6433 51.11 25.7033 55.3 19.5033C52.35 19.5233 49.65 19.5333 46.94 19.5533C46.47 19.5533 45.99 19.5633 45.52 19.5933C44.96 19.6233 44.67 19.5133 44.68 18.8133C44.71 16.9233 44.64 15.0233 44.59 13.1333C44.58 12.5433 44.83 12.2733 45.42 12.2633C51.4 12.2133 57.39 12.1633 63.7 12.1133L63.72 12.1233Z" fill="#F29937"/>
<path d="M81.49 33.5134C79.6 36.4334 77.16 37.7034 74.13 37.8834C69.4 38.1634 66.5201 35.9934 65.4801 31.3534C65.0301 29.3334 65.03 27.2834 65.02 25.2334C65.01 21.1834 65.03 17.1234 64.87 13.0834C64.8 11.4134 65.93 12.1834 66.54 12.0634C67.23 11.9234 67.9201 11.9134 67.9101 13.1034C67.8801 17.2034 67.91 21.3134 68.03 25.4134C68.19 30.4034 70.2 32.0934 75.2 31.6234C76.98 31.4534 78.5901 30.8734 79.9101 29.6234C80.9501 28.6334 81.4801 27.5134 81.4401 25.9834C81.32 21.6134 81.44 17.2434 81.29 12.8834C81.25 11.6534 81.98 11.8234 82.52 11.9234C83.17 12.0434 84.3601 11.2034 84.3701 12.8234C84.42 20.6634 84.49 28.5034 84.58 36.3434C84.58 37.1734 84.34 37.5134 83.51 37.3734C82.7901 37.2534 81.7 37.8834 81.64 36.4334C81.61 35.5934 81.54 34.7534 81.47 33.5334L81.49 33.5134Z" fill="#F29937"/>
<path d="M38.61 33.9934C35.83 37.8534 32.31 38.8634 28.12 37.9634C24.67 37.2234 23.22 34.6734 22.57 31.5634C21.82 27.9834 22.19 24.3234 22.09 20.7034C22.02 18.3334 22.19 15.9534 22 13.6034C21.88 12.0934 22.79 12.5034 23.54 12.4134C24.47 12.3134 25.06 12.4134 25.05 13.6434C25.02 17.7934 25.05 21.9534 25.17 26.1034C25.27 29.6834 26.5 31.3534 29.18 31.9034C32.89 32.6734 37.03 31.0734 38.31 28.3734C38.56 27.8434 38.57 27.2734 38.57 26.6734C38.51 22.2534 38.55 17.8334 38.43 13.4134C38.39 12.0734 39.07 12.3034 39.9 12.2734C40.8 12.2434 41.53 12.1034 41.53 13.4434C41.56 21.1734 41.65 28.9134 41.75 36.6434C41.76 37.5734 41.35 37.8834 40.52 37.7534C39.83 37.6434 38.68 38.2734 38.79 36.7034C38.85 35.9234 38.69 35.1334 38.6 33.9934H38.61Z" fill="#F29937"/>
<path d="M92.77 30.8634C94.5 31.2634 95.33 32.8334 94.89 34.8734C94.48 36.7734 92.15 37.8934 89.83 37.2934C88.16 36.8634 87.32 35.1634 87.79 33.1634C88.23 31.2834 90.36 30.3034 92.78 30.8634H92.77Z" fill="#F29937"/>
<path d="M134.77 42.7533C127.22 40.2133 123.87 41.2433 118.33 45.5333C113.23 49.4833 112.62 56.6033 106.24 62.6833C103.31 65.4833 98.4501 66.8833 94.6401 66.2433C91.9301 65.7833 89.6601 64.1433 88.2301 63.0033C83.1101 58.9333 85.47 52.5833 86.38 51.1333C87.17 49.8733 88.4601 50.0933 89.1901 48.6433C89.9201 47.1933 89.69 43.9733 87.74 43.4533C85.42 42.8333 83.6101 45.2333 83.4601 47.0533C83.3501 48.4133 83.8401 48.1933 83.9001 49.4433C83.9601 50.7833 83.3701 52.0833 82.2901 55.1233C80.9101 59.0233 81.8801 61.7033 83.3701 63.3633C87.2201 67.6533 95.24 70.6333 100.24 69.7633C110.81 67.9233 115.52 51.1433 122.42 48.0633C127.39 45.8533 131.75 46.5033 133.62 47.6333C133.81 47.7433 134.54 48.0133 135.13 48.2933C136.27 48.8333 135.8 43.1033 134.78 42.7633L134.77 42.7533Z" fill="#F29937"/>
<path d="M156.48 40.3233C157.12 36.1733 154.56 33.1133 150.38 33.0833C148.53 33.0733 146.71 33.3633 144.88 33.6133C143.63 33.7933 142.38 34.0033 141.11 33.8933C139.69 33.7733 138.82 32.6233 139.08 31.2633C139.3 30.1033 140.2 29.6133 141.6 30.0133C142.58 30.2933 143.59 30.3733 144.58 30.3633C148.18 30.3333 151.57 29.6833 153.6 26.2333C155.05 23.7633 155.15 21.0833 154.64 18.4133C154.43 17.2933 154.43 16.3233 153.16 14.4233L152.64 13.7533C149.52 10.7533 144.03 9.88333 140.17 11.7233C137.14 13.1633 134.74 16.9433 135.64 20.7233C136.35 24.3033 142.66 25.5533 145.18 23.6833C146.22 22.2833 142.18 23.2433 140 22.1733C137.1 20.7433 138.25 17.6833 138.9 16.8233C140.35 14.9233 142.7 13.0833 146.94 14.3033C150 15.5333 151.76 18.5033 151.59 21.4333C151.49 23.0933 150.72 24.3833 148.83 25.1633C147.1 25.8833 145.29 26.5533 143.56 26.3033C140.75 25.5833 139.47 26.0533 138.58 26.5733C137.84 27.0033 137.63 27.1633 136.92 28.0133C136.85 28.1733 136.73 28.3433 136.57 28.5533C134.01 31.7433 135.75 36.4933 139.75 37.3833C141.43 37.7633 143.11 37.4233 144.79 37.2633C146.52 37.1033 148.24 36.7933 149.98 36.8633C151.3 36.9233 152.41 37.4333 152.65 38.8633C152.88 40.2133 152.16 41.7233 151.37 42.7333C150.66 43.6433 149.64 44.2233 148.94 44.4533C145.24 45.6433 143.64 45.7333 134.74 42.7333C134.04 44.6933 130.9 45.8033 131.83 46.4633C134.09 48.0633 137.08 49.2633 140.26 49.6933C146.69 50.2533 147.93 49.9433 152.29 47.8133C154.81 46.5833 156.02 43.1533 156.46 40.3133L156.48 40.3233Z" fill="#F29937"/>
<path d="M22.07 6.90341C21.43 4.80341 22.72 2.06341 24.58 1.84341C26.18 1.65341 27.84 3.40341 28.12 5.21341C28.41 7.07341 27.32 9.40341 25.52 9.63341C23.95 9.83341 22.5 8.33341 22.07 6.90341Z" fill="#F29937"/>
<path d="M32.87 5.81341C32.61 3.73341 34.28 1.37341 36.05 1.47341C37.59 1.55341 38.86 3.47341 38.83 5.22341C38.8 7.02341 37.39 9.03341 35.67 8.95341C34.16 8.88341 33.05 7.24341 32.87 5.82341V5.81341Z" fill="#F29937"/>
<path d="M65.5901 6.37338C64.9501 4.27338 66.2401 1.53338 68.1001 1.31338C69.7001 1.12338 71.3601 2.87338 71.6401 4.68338C71.9301 6.54338 70.8401 8.87338 69.0401 9.10338C67.4701 9.30338 66.0201 7.80338 65.5901 6.37338Z" fill="#F29937"/>
<path d="M76.39 5.29339C76.13 3.21339 77.8 0.85339 79.57 0.95339C81.11 1.03339 82.38 2.95339 82.35 4.70339C82.32 6.50339 80.91 8.51339 79.19 8.43339C77.68 8.36339 76.57 6.72339 76.39 5.30339V5.29339Z" fill="#F29937"/>
</g>
<defs>
<clipPath id="clip0_515_3979">
<rect width="156.58" height="68.99" fill="white" transform="translate(0 0.91333)"/>
</clipPath>
</defs>
</svg>
